<svg width="17" height="13" viewBox="0 0 17 13" fill="none" xmlns="http://www.w3.org/2000/svg">
<path d="M1.70707 12.5H15.9293C16.4182 12.5 16.8182 12.05 16.8182 11.5C16.8182 10.95 16.4182 10.5 15.9293 10.5H1.70707C1.21818 10.5 0.818176 10.95 0.818176 11.5C0.818176 12.05 1.21818 12.5 1.70707 12.5ZM1.70707 7.5H15.9293C16.4182 7.5 16.8182 7.05 16.8182 6.5C16.8182 5.95 16.4182 5.5 15.9293 5.5H1.70707C1.21818 5.5 0.818176 5.95 0.818176 6.5C0.818176 7.05 1.21818 7.5 1.70707 7.5ZM0.818176 1.5C0.818176 2.05 1.21818 2.5 1.70707 2.5H15.9293C16.4182 2.5 16.8182 2.05 16.8182 1.5C16.8182 0.95 16.4182 0.5 15.9293 0.5H1.70707C1.21818 0.5 0.818176 0.95 0.818176 1.5Z" fill="#164D9D"/>
</svg>
