<svg width="19" height="19" viewBox="0 0 19 19" fill="none" xmlns="http://www.w3.org/2000/svg">
<path d="M16.7182 17.8L11.1182 12.2C10.6182 12.6 10.0432 12.9167 9.39318 13.15C8.74318 13.3833 8.05151 13.5 7.31818 13.5C5.50151 13.5 3.96418 12.8707 2.70618 11.612C1.44818 10.3533 0.818843 8.816 0.818176 7C0.818176 5.18333 1.44751 3.646 2.70618 2.388C3.96484 1.13 5.50218 0.500667 7.31818 0.5C9.13484 0.5 10.6722 1.12933 11.9302 2.388C13.1882 3.64667 13.8175 5.184 13.8182 7C13.8182 7.73333 13.7015 8.425 13.4682 9.075C13.2348 9.725 12.9182 10.3 12.5182 10.8L18.1432 16.425C18.3265 16.6083 18.4182 16.8333 18.4182 17.1C18.4182 17.3667 18.3182 17.6 18.1182 17.8C17.9348 17.9833 17.7015 18.075 17.4182 18.075C17.1348 18.075 16.9015 17.9833 16.7182 17.8ZM7.31818 11.5C8.56818 11.5 9.63084 11.0623 10.5062 10.187C11.3815 9.31167 11.8188 8.24933 11.8182 7C11.8182 5.75 11.3805 4.68733 10.5052 3.812C9.62984 2.93667 8.56751 2.49933 7.31818 2.5C6.06818 2.5 5.00551 2.93767 4.13018 3.813C3.25484 4.68833 2.81751 5.75067 2.81818 7C2.81818 8.25 3.25584 9.31267 4.13118 10.188C5.00651 11.0633 6.06884 11.5007 7.31818 11.5Z" fill="#164D9D"/>
</svg>
